HIERARCHY
ROOT root
{
	OFFSET	0	13.1	24.9
	CHANNELS 6  Xposition Yposition Zposition Xrotation Yrotation Zrotation
	JOINT spine_1
	{
		OFFSET	0	9.99999	0
		CHANNELS 3  Xrotation Yrotation Zrotation
		JOINT spine_2
		{
			OFFSET	0	112	-10
			CHANNELS 3  Xrotation Yrotation Zrotation
			JOINT spine_3
			{
				OFFSET	0	206.5	19.3
				CHANNELS 3  Xrotation Yrotation Zrotation
				JOINT spine_4
				{
					OFFSET	0	110.4	14.6
					CHANNELS 3  Xrotation Yrotation Zrotation
					JOINT neck_1
					{
						OFFSET	0	71.8	-50.3
						CHANNELS 3  Xrotation Yrotation Zrotation
						JOINT neck_2
						{
							OFFSET	0	86.2	-25.8
							CHANNELS 3  Xrotation Yrotation Zrotation
							JOINT head_ee
							{
								OFFSET	0	179.8	-8.7
								CHANNELS 3  Xrotation Yrotation Zrotation
								End Site
								{
									OFFSET	1	0	0
								}
							}
						}
					}
					JOINT left_clavicle
					{
						OFFSET	-43.2	22.4	-70.8
						CHANNELS 3  Xrotation Yrotation Zrotation
						JOINT left_shoulder
						{
							OFFSET	-93.9	-5.79999	48.7
							CHANNELS 3  Xrotation Yrotation Zrotation
							JOINT left_elbow
							{
								OFFSET	-291.4	-30.8	15.2
								CHANNELS 3  Xrotation Yrotation Zrotation
								JOINT left_lowarm_twist
								{
									OFFSET	-110.7	-3.89999	13.6
									CHANNELS 3  Xrotation Yrotation Zrotation
									JOINT left_hand
									{
										OFFSET	-110.7	-3.89999	13.6
										CHANNELS 3  Xrotation Yrotation Zrotation
										JOINT left_ee
										{
											OFFSET	-80.8	-5.10001	12.1
											CHANNELS 3  Xrotation Yrotation Zrotation
											End Site
											{
												OFFSET	1	0	0
											}
										}
									}
								}
							}
						}
					}
					JOINT right_clavicle
					{
						OFFSET	43.2	22.4	-70.8
						CHANNELS 3  Xrotation Yrotation Zrotation
						JOINT right_shoulder
						{
							OFFSET	93.9	-5.79999	48.7
							CHANNELS 3  Xrotation Yrotation Zrotation
							JOINT right_elbow
							{
								OFFSET	291.4	-30.8	15.2
								CHANNELS 3  Xrotation Yrotation Zrotation
								JOINT right_lowarm_twist
								{
									OFFSET	110.7	-3.89999	13.6
									CHANNELS 3  Xrotation Yrotation Zrotation
									JOINT right_hand
									{
										OFFSET	110.7	-3.89999	13.6
										CHANNELS 3  Xrotation Yrotation Zrotation
										JOINT right_ee
										{
											OFFSET	80.8	-5.10001	12.1
											CHANNELS 3  Xrotation Yrotation Zrotation
											End Site
											{
												OFFSET	1	0	0
											}
										}
									}
								}
							}
						}
					}
				}
			}
		}
	}
	JOINT left_hip
	{
		OFFSET	-82.8	-127.5	0.300001
		CHANNELS 3  Xrotation Yrotation Zrotation
		JOINT left_knee
		{
			OFFSET	-28.2	-396.7	2.2
			CHANNELS 3  Xrotation Yrotation Zrotation
			JOINT left_ankle
			{
				OFFSET	-11.7	-411.3	35.4
				CHANNELS 3  Xrotation Yrotation Zrotation
				JOINT left_toes
				{
					OFFSET	0	-60	-88.6
					CHANNELS 3  Xrotation Yrotation Zrotation
					JOINT left_foot_ee
					{
						OFFSET	-22.5	-16.5	-42.2
						CHANNELS 3  Xrotation Yrotation Zrotation
						End Site
						{
							OFFSET	1	0	0
						}
					}
				}
			}
		}
	}
	JOINT right_hip
	{
		OFFSET	82.8	-127.5	0.300001
		CHANNELS 3  Xrotation Yrotation Zrotation
		JOINT right_knee
		{
			OFFSET	28.2	-396.7	2.2
			CHANNELS 3  Xrotation Yrotation Zrotation
			JOINT right_ankle
			{
				OFFSET	11.7	-411.3	35.4
				CHANNELS 3  Xrotation Yrotation Zrotation
				JOINT right_toes
				{
					OFFSET	0	-60	-88.6
					CHANNELS 3  Xrotation Yrotation Zrotation
					JOINT right_foot_ee
					{
						OFFSET	22.5	-16.5	-42.2
						CHANNELS 3  Xrotation Yrotation Zrotation
						End Site
						{
							OFFSET	1	0	0
						}
					}
				}
			}
		}
	}
}
MOTION
Frames: 6
Frame Time: 0.02
2470.94 566.199 -487.195 46.7326 -78.5212 53.3294 -5.55902 -0.349931 -2.20331 -5.55635 -0.209055 -2.2211 -5.54283 0.475374 -2.1797 -5.54944 0.125255 -2.22739 -9.88004 10.1963 6.80945 -9.8223 14.5879 9.14355 -0.0 0.0 -0.0 9.31559 24.4674 15.648 -20.4943 -12.8385 62.0181 0.394579 -11.06 0.0382021 -17.485 -0.932628 2.02327 3.45781 30.0134 31.9553 -0.0 0.0 -0.0 10.5726 2.11874 -20.9508 35.6798 30.9376 -62.3084 5.11237 68.4273 -3.47738 13.7058 -0.277807 1.72459 6.23195 -24.4999 -54.3453 0.0 0.0 0.0 38.4447 -23.7995 -3.83748 -28.4399 0.100653 4.31871 12.3616 27.7949 -1.85463 31.8677 -0.0 -0.0 -0.0 0.0 -0.0 -26.8214 -8.30672 -8.00771 -33.9766 0.128672 -5.13707 39.437 7.79442 4.93082 26.8047 -0.0 -0.0 0.0 0.0 0.0 
2496.76 561.035 -492.183 54.3013 -79.5922 61.2971 -5.67773 -0.245907 -2.24498 -5.67493 -0.102592 -2.25607 -5.66553 0.592182 -2.17942 -5.67208 0.240643 -2.24555 -10.6957 10.3488 7.26419 -10.6377 14.7233 9.71389 -0.0 0.0 -0.0 9.42316 25.2241 15.6704 -19.8118 -13.0185 62.4883 0.523352 -14.5343 0.0667385 -16.3356 -0.852676 1.89973 3.67725 30.2028 33.4266 -0.0 0.0 -0.0 10.399 0.807384 -20.524 34.8507 31.9185 -63.2499 5.28521 69.069 -3.63847 14.5002 -0.281171 1.826 6.09581 -24.0511 -52.8574 0.0 0.0 0.0 41.7678 -23.8294 -4.12105 -36.0604 -0.235341 5.4389 8.63755 28.5696 -1.31753 31.5734 -0.0 -0.0 -0.0 0.0 -0.0 -28.6486 -8.10038 -7.13429 -32.384 0.0546058 -4.90395 38.535 11.0117 4.92156 27.3679 -0.0 -0.0 0.0 0.0 0.0 
2528.27 556.013 -499.548 56.3427 -79.7605 64.172 -5.62774 -0.294462 -2.65595 -5.62383 -0.124922 -2.66929 -5.61053 0.694916 -2.58033 -5.61971 0.278831 -2.65763 -10.4498 10.6062 7.55979 -10.3773 14.9655 10.0352 -0.0 0.0 -0.0 9.65012 25.6262 15.9204 -20.1819 -12.937 62.6356 0.606191 -16.7146 0.0890537 -16.1243 -0.83825 1.87685 3.9477 30.127 35.2519 -0.0 0.0 -0.0 10.4266 -0.277006 -20.5234 33.5628 33.0821 -63.9272 5.22503 68.8498 -3.5823 12.5702 -0.270557 1.57973 5.95998 -23.1886 -51.3889 0.0 0.0 0.0 40.8396 -23.5375 -4.83116 -39.8795 -0.459119 5.98141 17.3055 28.0051 -2.55502 32.5184 -0.0 -0.0 -0.0 0.0 -0.0 -30.6522 -8.12956 -7.03961 -31.57 0.0192643 -4.78405 35.9473 14.4025 4.7712 27.5713 -0.0 -0.0 0.0 0.0 0.0 
2555.32 552.265 -507.545 65.0353 -80.7544 73.0484 -5.51787 0.0382026 -2.82822 -5.51344 0.218019 -2.82007 -5.51729 1.06363 -2.62102 -5.52631 0.636504 -2.75598 -10.3782 10.8197 7.29296 -10.3219 15.535 9.82592 -0.0 0.0 -0.0 9.91691 25.9524 16.2367 -20.4612 -12.8915 62.6744 0.78029 -21.1331 0.145558 -15.4116 -0.790219 1.79929 3.9224 29.67 35.0395 -0.0 0.0 -0.0 10.3975 -0.755415 -20.435 32.555 34.3361 -63.7227 4.80023 67.1678 -3.18836 12.8599 -0.272679 1.61667 5.67911 -21.3283 -48.4118 0.0 0.0 0.0 41.7069 -23.1551 -6.26004 -46.1478 -0.903463 6.83652 16.1265 28.0022 -2.39132 32.0698 -0.0 -0.0 -0.0 0.0 -0.0 -33.2787 -8.95262 -5.79048 -26.186 -0.171154 -3.98001 34.1042 14.7496 4.59768 28.6644 -0.0 -0.0 0.0 0.0 0.0 
2582.99 554.071 -515.056 65.789 -80.9114 73.4887 -5.41072 0.0278169 -2.82418 -5.4063 0.207398 -2.8167 -5.40968 1.04754 -2.62301 -5.41874 0.62031 -2.75541 -13.1544 11.8056 9.30024 -13.0908 16.6885 12.3808 -0.0 0.0 -0.0 9.99645 26.2765 16.2842 -20.9822 -12.476 62.7314 1.07057 -27.9376 0.266312 -14.1709 -0.708924 1.66287 3.63379 27.9537 32.8781 -0.0 0.0 -0.0 10.3466 -1.06417 -20.3112 32.2545 35.1636 -63.7449 4.16126 64.1021 -2.6061 12.7019 -0.271545 1.59653 5.41073 -19.2198 -45.5722 0.0 0.0 0.0 42.8281 -22.0833 -4.79588 -52.1095 -1.41081 7.60103 8.51125 28.5101 -1.29823 30.7979 -0.0 -0.0 -0.0 0.0 -0.0 -35.4034 -8.97754 -5.51745 -23.0834 -0.246294 -3.50986 34.1665 12.14 4.53247 30.4819 -0.0 -0.0 0.0 0.0 0.0 
2607.16 552.48 -519.282 68.2531 -81.2533 76.2111 -5.35537 -0.095277 -2.96907 -5.35047 0.0937613 -2.96912 -5.34729 0.982098 -2.8037 -5.35787 0.527182 -2.92349 -12.6749 11.8718 8.64197 -12.6416 17.1255 11.7128 -0.0 0.0 -0.0 10.5789 25.8718 17.2005 -20.7163 -12.5348 61.7948 1.1408 -29.4708 0.300047 -12.5761 -0.608816 1.48503 3.67154 28.6177 33.2166 -0.0 0.0 -0.0 10.1102 -0.409998 -19.8615 31.1105 35.1716 -63.8889 3.93171 62.8046 -2.40073 13.7851 -0.278206 1.73471 5.23024 -17.455 -43.6027 0.0 0.0 0.0 43.1984 -22.4861 -4.59458 -55.9224 -1.77614 8.06111 7.51884 28.3837 -1.14917 30.0457 -0.0 -0.0 -0.0 0.0 -0.0 -37.0578 -9.16578 -5.41359 -21.9056 -0.268132 -3.33045 34.4405 13.2899 4.59021 30.8675 -0.0 -0.0 0.0 0.0 0.0 
